ply
format ascii 1.0
comment : MagicaVoxel @ Ephtracy
element vertex 24
property float x
property float y
property float z
property uchar red
property uchar green
property uchar blue
end_header
0 4 0 0 0 0
1 4 0 0 0 0
2 4 0 0 0 0
3 4 0 0 0 0
0 3 0 0 0 0
0 2 0 0 0 0
0 1 0 0 0 0
3 3 0 0 0 0
3 2 0 0 0 0
3 1 0 0 0 0
1 3 0 0 0 0
2 3 0 0 0 0
1 2 0 255 255 255
2 2 0 255 255 255
1 1 0 255 255 255
2 1 0 255 255 255
1 1 1 255 0 0
2 1 1 130 130 130
1 2 1 130 130 130
2 2 1 130 130 130
1 1 2 130 130 130
2 1 2 130 130 130
1 2 2 130 130 130
2 2 2 130 130 130
